<?xml version="1.0" encoding="UTF-8" standalone="no"?>
<svg
   version="1.1"
   width="2125.9844pt"
   height="2125.9844pt"
   id="svg11"
   viewBox="0 0 2125.9844 2125.9844"
   sodipodi:docname="waskita-seeklogo.cdr"
   xmlns:inkscape="http://www.inkscape.org/namespaces/inkscape"
   xmlns:sodipodi="http://sodipodi.sourceforge.net/DTD/sodipodi-0.dtd"
   xmlns="http://www.w3.org/2000/svg"
   xmlns:svg="http://www.w3.org/2000/svg">
  <defs
     id="defs15" />
  <sodipodi:namedview
     id="namedview13"
     pagecolor="#ffffff"
     bordercolor="#000000"
     borderopacity="0.25"
     inkscape:showpageshadow="2"
     inkscape:pageopacity="0.0"
     inkscape:pagecheckerboard="0"
     inkscape:deskcolor="#d1d1d1"
     inkscape:document-units="pt" />
  <path
     d="M 0,0 V 2125.9843 H 2125.9843 V 0 Z"
     style="fill:none;stroke:#ffffff;stroke-width:0.5669;stroke-linecap:butt;stroke-linejoin:miter;stroke-dasharray:none"
     id="path2" />
  <g
     id="Layer1000">
    <path
       d="M 759.7496,768.9766 C 1072.2175,631.4742 1354.0544,568.1055 1605.263,578.8615 l -40.8232,79.0557 v 0.0355 c -162.4013,-10.1831 -365.0933,15.6196 -579.3586,81.0228 -68.5179,20.9142 -134.4962,44.7515 -197.1694,70.8522 z m -11.692,57.9429 C 421.8383,971.0308 194.71,1175.6587 186.8443,1343.0912 L 71.9002,1372.3615 C 95.5272,1198.7599 317.3278,973.0936 721.7343,786.2333 l 26.3091,40.6808 z m -557.041,564.3448 c 39.0209,170.588 333.0766,234.0153 703.2475,168.2094 l -1.5141,51.8004 C 355.98,1708.6561 89.3365,1604 70.8663,1423.2591 l 120.122,-31.9203 z m 737.8588,161.7104 c 65.9868,-13.0016 134.1459,-30.0047 203.531,-51.1832 231.4855,-70.6588 434.1393,-174.5966 577.3657,-286.9065 l 47.0024,20.6322 c -204.9702,158.0299 -481.6559,281.1543 -830.0954,369.3537 0.6342,-16.4018 1.3955,-34.9392 2.1963,-51.8962 z m 824.2805,-373.9512 C 1879.2454,1068.9201 1946.6883,953.4423 1927.7026,855.1379 1907.3398,749.7049 1791.4395,684.0125 1620.558,663.0681 l 44.9602,-80.1536 c 55.2608,5.0995 108.9779,13.9327 161.1527,26.4979 226.9658,64.7665 284.8114,190.5887 173.5354,377.4686 -54.2792,75.8186 -119.8578,146.1387 -196.7033,210.9725 l -50.3132,-18.8353 z"
       style="fill:#b90025;fill-rule:evenodd"
       id="path4" />
    <path
       d="m 381.4036,936.3311 c 25.7652,-29.744 42.1888,-24.2878 59.0785,-4.7557 l 282.443,462.5586 c 12.295,17.7126 22.9561,25.1589 41.0899,-4.9379 l 571.1496,-964.2705 c 15.7966,-26.0779 23.1877,-27.5182 46.6917,-28.0752 l 30.0932,0.4952 c 19.997,0.4008 18.9714,23.6812 11.6424,38.16 L 771.7232,1576.8819 c -84.1589,8.8379 -162.7673,10.3777 -233.3486,4.9195 l -238.25,-395.5161 c -26.0436,-51.7595 -35.2709,-68.3283 -8.0651,-113.0462 z m 357.3099,698.3487 -43.5708,76.2894 c -8.966,12.2156 -14.1976,16.8026 -29.7045,18.1647 l -24.0562,-0.1435 c -12.3081,-0.044 -15.8786,-4.9187 -22.9068,-14.2146 l -40.5114,-67.2528 c 49.8215,-1.7464 103.3935,-5.9573 160.7497,-12.8432 z"
       style="fill:#000078;fill-rule:evenodd"
       id="path6" />
    <path
       d="m 874.6909,936.3311 c 25.7652,-29.744 42.1888,-24.2878 59.0785,-4.7557 l 282.4427,462.5586 c 12.2953,17.7126 22.9561,25.1589 41.0902,-4.9379 l 571.1496,-964.2705 c 15.7966,-26.0779 23.1877,-27.5182 46.6917,-28.0752 l 30.0932,0.4952 c 19.997,0.4008 18.9714,23.6812 11.6424,38.16 l -562.5158,984.926 c -69.9758,30.2352 -144.3436,57.6692 -221.957,81.36 -43.2199,13.1921 -85.9638,24.7637 -128.0036,34.7576 L 793.4117,1186.2853 c -26.0436,-51.7595 -35.271,-68.3283 -8.0649,-113.0462 z m 446.9505,541.3943 -133.2114,233.2438 c -8.966,12.2156 -14.1976,16.8026 -29.7045,18.1647 l -24.0565,-0.1435 c -12.3078,-0.044 -15.8783,-4.9187 -22.9065,-14.2146 l -82.7657,-137.3984 c 104.5783,-29.7955 202.1255,-63.0136 292.6446,-99.652 z"
       style="fill:#000078;fill-rule:evenodd"
       id="path8" />
  </g>
</svg>
